<svg width="60" height="60" viewBox="0 0 60 60" fill="none" xmlns="http://www.w3.org/2000/svg">
<path d="M30.0001 54.8301L5.50014 29.6001C3.35139 27.4925 1.92968 24.7554 1.44106 21.7855C0.952455 18.8157 1.42235 15.7674 2.78265 13.0826C3.83067 11.0482 5.34233 9.28871 7.19559 7.94616C9.04885 6.6036 11.1918 5.71558 13.4515 5.35376C15.7111 4.99195 18.0243 5.1665 20.2041 5.86329C22.3838 6.56008 24.3693 7.75961 26.0002 9.36506L30.0001 13.0126L34.0001 9.36506C35.6311 7.76012 37.6167 6.56103 39.7964 5.86455C41.9761 5.16806 44.289 4.99368 46.5486 5.35545C48.808 5.71724 50.9508 6.60506 52.8041 7.94729C54.6574 9.28953 56.1693 11.0486 57.2176 13.0826C58.5772 15.7676 59.0466 18.8157 58.558 21.7854C58.0695 24.7551 56.6482 27.4921 54.5002 29.6001L30.0001 54.8301Z" stroke="black" stroke-width="2" stroke-linecap="round" stroke-linejoin="round"/>
</svg>
