<svg width="60" height="60" viewBox="0 0 60 60" fill="none" xmlns="http://www.w3.org/2000/svg">
<g clip-path="url(#clip0_2407_4132)">
<path d="M54.375 31.875V54.375C54.375 55.3695 53.98 56.3234 53.2766 57.0266C52.5734 57.73 51.6195 58.125 50.625 58.125H9.375C8.38043 58.125 7.42661 57.73 6.72335 57.0266C6.02009 56.3234 5.625 55.3695 5.625 54.375V31.875" stroke="black" stroke-width="2" stroke-linecap="round" stroke-linejoin="round"/>
<path d="M52.87 1.875H7.13C6.70324 1.87493 6.2892 2.02024 5.95609 2.28701C5.62298 2.55376 5.39069 2.92605 5.2975 3.34251L1.875 18.75C1.875 20.2418 2.46764 21.6725 3.52252 22.7275C4.57741 23.7824 6.00815 24.375 7.5 24.375C8.99185 24.375 10.4226 23.7824 11.4775 22.7275C12.5324 21.6725 13.125 20.2418 13.125 18.75C13.125 20.2418 13.7176 21.6725 14.7725 22.7275C15.8275 23.7824 17.2582 24.375 18.75 24.375C20.2418 24.375 21.6725 23.7824 22.7275 22.7275C23.7824 21.6725 24.375 20.2418 24.375 18.75C24.375 20.2418 24.9676 21.6725 26.0225 22.7275C27.0775 23.7824 28.5082 24.375 30 24.375C31.4918 24.375 32.9225 23.7824 33.9775 22.7275C35.0324 21.6725 35.625 20.2418 35.625 18.75C35.625 20.2418 36.2176 21.6725 37.2725 22.7275C38.3275 23.7824 39.7582 24.375 41.25 24.375C42.7418 24.375 44.1725 23.7824 45.2275 22.7275C46.2824 21.6725 46.875 20.2418 46.875 18.75C46.875 20.2418 47.4676 21.6725 48.5225 22.7275C49.5775 23.7824 51.0082 24.375 52.5 24.375C53.9918 24.375 55.4225 23.7824 56.4775 22.7275C57.5324 21.6725 58.125 20.2418 58.125 18.75L54.7 3.34251C54.6078 2.92604 54.3761 2.55355 54.0432 2.28668C53.7105 2.01983 53.2965 1.87459 52.87 1.875Z" stroke="black" stroke-width="2" stroke-linecap="round" stroke-linejoin="round"/>
<path d="M46.875 41.25C46.875 39.2609 46.0848 37.3533 44.6783 35.9467C43.2717 34.5402 41.3641 33.75 39.375 33.75C37.3859 33.75 35.4783 34.5402 34.0717 35.9467C32.6652 37.3533 31.875 39.2609 31.875 41.25V58.125H46.875V41.25Z" stroke="black" stroke-width="2" stroke-linecap="round" stroke-linejoin="round"/>
<path d="M13.125 39.375H24.375V50.625H13.125V39.375Z" stroke="black" stroke-width="2" stroke-linecap="round" stroke-linejoin="round"/>
</g>
<defs>
<clipPath id="clip0_2407_4132">
<rect width="60" height="60" fill="white"/>
</clipPath>
</defs>
</svg>
