<svg width="31" height="30" viewBox="0 0 31 30" fill="none" xmlns="http://www.w3.org/2000/svg">
<g clip-path="url(#clip0_2436_1950)">
<path d="M0 14.9969C0 15.4642 0.373832 15.838 0.841121 15.838H21.1589L16.8037 20.1932C16.4735 20.5234 16.4735 21.053 16.8037 21.3832C16.9657 21.5452 17.1838 21.6324 17.3956 21.6324C17.6075 21.6324 17.8255 21.5514 17.9875 21.3832L23.7819 15.5888C24.1121 15.2586 24.1121 14.729 23.7819 14.3988L17.9875 8.60437C17.6573 8.27415 17.1277 8.27415 16.7975 8.60437C16.4673 8.93459 16.4673 9.46418 16.7975 9.7944L21.1526 14.1495H0.841121C0.373832 14.1558 0 14.5296 0 14.9969Z" fill="white"/>
<path d="M23.8255 0H6.16822C2.76636 0 0 2.76636 0 6.16822V9.79439C0 10.2617 0.373832 10.6355 0.841121 10.6355C1.30841 10.6355 1.68224 10.2617 1.68224 9.79439V6.16822C1.68224 3.6947 3.6947 1.68224 6.16822 1.68224H23.8318C26.3053 1.68224 28.3178 3.6947 28.3178 6.16822V23.8318C28.3178 26.3053 26.3053 28.3178 23.8318 28.3178H6.16822C3.6947 28.3178 1.68224 26.3053 1.68224 23.8318V20.2492C1.68224 19.7819 1.30841 19.4081 0.841121 19.4081C0.373832 19.4081 0 19.7819 0 20.2492V23.8318C0 27.2336 2.76636 30 6.16822 30H23.8318C27.2336 30 30 27.2336 30 23.8318V6.16822C29.9938 2.76636 27.2274 0 23.8255 0Z" fill="white"/>
</g>
<defs>
<clipPath id="clip0_2436_1950">
<rect width="30" height="30" fill="white" transform="translate(0.181824)"/>
</clipPath>
</defs>
</svg>
