<svg width="32" height="26" viewBox="0 0 32 26" fill="none" xmlns="http://www.w3.org/2000/svg">
<path d="M22.8182 25V22.3333C22.8182 20.9188 22.2435 19.5623 21.2206 18.5621C20.1977 17.5619 18.8103 17 17.3636 17H6.45455C5.00791 17 3.62053 17.5619 2.5976 18.5621C1.57467 19.5623 1 20.9188 1 22.3333V25" stroke="white" stroke-width="2" stroke-linecap="round" stroke-linejoin="round"/>
<path d="M11.9091 11.6667C14.9216 11.6667 17.3637 9.27885 17.3637 6.33333C17.3637 3.38781 14.9216 1 11.9091 1C8.89664 1 6.45456 3.38781 6.45456 6.33333C6.45456 9.27885 8.89664 11.6667 11.9091 11.6667Z" stroke="white" stroke-width="2" stroke-linecap="round" stroke-linejoin="round"/>
<path d="M22.8182 11.6667H31" stroke="white" stroke-width="2" stroke-linecap="round" stroke-linejoin="round"/>
<path d="M26.9091 7.66667V15.6667" stroke="white" stroke-width="2" stroke-linecap="round" stroke-linejoin="round"/>
</svg>
