<svg width="21" height="18" viewBox="0 0 21 18" fill="none" xmlns="http://www.w3.org/2000/svg">
<path d="M20.0238 3.14285H6.92858M4.54763 3.14285H0.976196M20.0238 15.0476H6.92858M4.54763 15.0476H0.976196M14.0714 9.09524H0.976196M20.0238 9.09524H16.4524M5.7381 0.761902C6.05384 0.761902 6.35664 0.887327 6.5799 1.11058C6.80315 1.33384 6.92858 1.63664 6.92858 1.95238V4.33333C6.92858 4.64906 6.80315 4.95187 6.5799 5.17512C6.35664 5.39838 6.05384 5.52381 5.7381 5.52381C5.42237 5.52381 5.11957 5.39838 4.89631 5.17512C4.67305 4.95187 4.54763 4.64906 4.54763 4.33333V1.95238C4.54763 1.63664 4.67305 1.33384 4.89631 1.11058C5.11957 0.887327 5.42237 0.761902 5.7381 0.761902V0.761902ZM5.7381 12.6667C6.05384 12.6667 6.35664 12.7921 6.5799 13.0153C6.80315 13.2386 6.92858 13.5414 6.92858 13.8571V16.2381C6.92858 16.5538 6.80315 16.8566 6.5799 17.0799C6.35664 17.3031 6.05384 17.4286 5.7381 17.4286C5.42237 17.4286 5.11957 17.3031 4.89631 17.0799C4.67305 16.8566 4.54763 16.5538 4.54763 16.2381V13.8571C4.54763 13.5414 4.67305 13.2386 4.89631 13.0153C5.11957 12.7921 5.42237 12.6667 5.7381 12.6667ZM15.2619 6.71428C15.5776 6.71428 15.8804 6.83971 16.1037 7.06297C16.327 7.28622 16.4524 7.58903 16.4524 7.90476V10.2857C16.4524 10.6014 16.327 10.9042 16.1037 11.1275C15.8804 11.3508 15.5776 11.4762 15.2619 11.4762C14.9462 11.4762 14.6434 11.3508 14.4201 11.1275C14.1969 10.9042 14.0714 10.6014 14.0714 10.2857V7.90476C14.0714 7.58903 14.1969 7.28622 14.4201 7.06297C14.6434 6.83971 14.9462 6.71428 15.2619 6.71428V6.71428Z" stroke="black" stroke-linecap="round" stroke-linejoin="round"/>
</svg>
